<svg xmlns="http://www.w3.org/2000/svg" xmlns:xlink="http://www.w3.org/1999/xlink" width="1330.666" height="939.109" viewBox="0 0 1330.666 939.109">
  <defs>
    <filter id="Rectangle_4" x="205.909" y="141.136" width="923" height="58" filterUnits="userSpaceOnUse">
      <feOffset dy="3" input="SourceAlpha"/>
      <feGaussianBlur stdDeviation="3" result="blur"/>
      <feFlood flood-opacity="0.161"/>
      <feComposite operator="in" in2="blur"/>
      <feComposite in="SourceGraphic"/>
    </filter>
  </defs>
  <g id="Group_6" data-name="Group 6" transform="translate(-209.091 1095.136)">
    <path id="Path_42" data-name="Path 42" d="M546.559-11.654C722.427,35.47,811.291,168.714,849.11,282.171c55.274,130.912,30.31,382.61-49.456,456.737-72.478,67.354-372.019,34.688-473.915,0C189.01,692.361-78.909,544.216-78.909,319.99S370.691-58.777,546.559-11.654Z" transform="translate(288 -1075)" fill="#f2f2f2"/>
    <ellipse id="Ellipse_12" data-name="Ellipse 12" cx="553.5" cy="39.5" rx="553.5" ry="39.5" transform="translate(331 -305)" fill="#3f3d56"/>
    <ellipse id="Ellipse_13" data-name="Ellipse 13" cx="501.5" cy="32" rx="501.5" ry="32" transform="translate(379 -297)" fill="#39374d"/>
    <rect id="Rectangle_3" data-name="Rectangle 3" width="905" height="683" transform="translate(424 -948)" fill="#3f3d56"/>
    <rect id="Rectangle_5" data-name="Rectangle 5" width="905" height="683" transform="translate(424 -948)" fill="#3f3d56"/>
    <g transform="matrix(1, 0, 0, 1, 209.09, -1095.14)" filter="url(#Rectangle_4)">
      <rect id="Rectangle_4-2" data-name="Rectangle 4" width="905" height="40" transform="translate(214.91 147.14)" fill="#3f3d56"/>
    </g>
    <circle id="Ellipse_9" data-name="Ellipse 9" cx="11.5" cy="11.5" r="11.5" transform="translate(434 -941)" fill="#fff"/>
    <circle id="Ellipse_10" data-name="Ellipse 10" cx="11.5" cy="11.5" r="11.5" transform="translate(461 -941)" fill="#fff"/>
    <circle id="Ellipse_11" data-name="Ellipse 11" cx="11.5" cy="11.5" r="11.5" transform="translate(488 -941)" fill="#fff"/>
    <g id="Group_3" data-name="Group 3" transform="translate(18 -1191)">
      <line id="Line_1" data-name="Line 1" x2="230" transform="translate(608.5 351.5)" fill="none" stroke="#fff" stroke-linecap="round" stroke-width="5"/>
      <line id="Line_14" data-name="Line 14" x2="230" transform="translate(608.5 740.5)" fill="none" stroke="#fff" stroke-linecap="round" stroke-width="5"/>
      <line id="Line_18" data-name="Line 18" x2="158" transform="translate(608.5 790.5)" fill="none" stroke="#fff" stroke-linecap="round" stroke-width="5"/>
      <line id="Line_21" data-name="Line 21" x2="97" transform="translate(608.5 815.5)" fill="none" stroke="#fff" stroke-linecap="round" stroke-width="5"/>
      <line id="Line_23" data-name="Line 23" x2="227" transform="translate(608.5 840.5)" fill="none" stroke="#fff" stroke-linecap="round" stroke-width="5"/>
      <line id="Line_24" data-name="Line 24" x2="103" transform="translate(884.5 840.5)" fill="none" stroke="#fff" stroke-linecap="round" stroke-width="5"/>
      <line id="Line_22" data-name="Line 22" x2="272" transform="translate(741.5 815.5)" fill="none" stroke="#fff" stroke-linecap="round" stroke-width="5"/>
      <line id="Line_19" data-name="Line 19" x2="106" transform="translate(795.5 790.5)" fill="none" stroke="#fff" stroke-linecap="round" stroke-width="5"/>
      <line id="Line_20" data-name="Line 20" x2="61" transform="translate(930.5 790.5)" fill="none" stroke="#fff" stroke-linecap="round" stroke-width="5"/>
      <line id="Line_16" data-name="Line 16" x2="101" transform="translate(866.5 740.5)" fill="none" stroke="#fff" stroke-linecap="round" stroke-width="5"/>
      <path id="Path_41" data-name="Path 41" d="M0,0H417" transform="translate(691.5 765.5)" fill="none" stroke="#fff" stroke-linecap="round" stroke-width="5"/>
      <line id="Line_17" data-name="Line 17" x1="37" transform="translate(608.5 765.5)" fill="none" stroke="#fff" stroke-linecap="round" stroke-width="5"/>
      <line id="Line_7" data-name="Line 7" x2="230" transform="translate(608.5 401.5)" fill="none" stroke="#fff" stroke-linecap="round" stroke-width="5"/>
      <line id="Line_9" data-name="Line 9" x2="242" transform="translate(866.5 401.5)" fill="none" stroke="#fff" stroke-linecap="round" stroke-width="5"/>
      <line id="Line_8" data-name="Line 8" x2="230" transform="translate(608.5 426.5)" fill="none" stroke="#fff" stroke-linecap="round" stroke-width="5"/>
      <line id="Line_11" data-name="Line 11" x2="230" transform="translate(608.5 451.5)" fill="none" stroke="#fff" stroke-linecap="round" stroke-width="5"/>
      <line id="Line_3" data-name="Line 3" x2="59" transform="translate(608.5 376.5)" fill="none" stroke="#fff" stroke-linecap="round" stroke-width="5"/>
      <line id="Line_4" data-name="Line 4" x2="396" transform="translate(712.5 376.5)" fill="none" stroke="#fff" stroke-linecap="round" stroke-width="5"/>
      <line id="Line_2" data-name="Line 2" x2="77" transform="translate(876.5 351.5)" fill="none" stroke="#fff" stroke-linecap="round" stroke-width="5"/>
      <line id="Line_10" data-name="Line 10" x2="49" transform="translate(876.5 426.5)" fill="none" stroke="#fff" stroke-linecap="round" stroke-width="5"/>
      <line id="Line_12" data-name="Line 12" x2="49" transform="translate(876.5 451.5)" fill="none" stroke="#fff" stroke-linecap="round" stroke-width="5"/>
      <line id="Line_13" data-name="Line 13" x2="49" transform="translate(953.5 451.5)" fill="none" stroke="#fff" stroke-linecap="round" stroke-width="5"/>
      <g id="left-chevron" transform="translate(664.093 510)">
        <g id="Group_2" data-name="Group 2" transform="translate(48.907)">
          <path id="Path_40" data-name="Path 40" d="M155.046,20.255,134.792,0,48.907,85.885l85.885,85.885,20.254-20.255-65.63-65.63Z" transform="translate(-48.907)" fill="#fff"/>
        </g>
      </g>
      <g id="left-chevron-2" data-name="left-chevron" transform="translate(1069.046 681.77) rotate(180)">
        <g id="Group_2-2" data-name="Group 2" transform="translate(48.907)">
          <path id="Path_40-2" data-name="Path 40" d="M155.046,20.255,134.792,0,48.907,85.885l85.885,85.885,20.254-20.255-65.63-65.63Z" transform="translate(-48.907)" fill="#fff"/>
        </g>
      </g>
    </g>
    <g id="Group_4" data-name="Group 4" transform="translate(-8 -1159)">
      <path id="Path_82" data-name="Path 82" d="M101.879-185.89S203.758-46.393,203.758,17.465s-45.613,95.948-101.879,95.948S0,81.323,0,17.465,101.879-185.89,101.879-185.89Z" transform="translate(1344 725.876)" fill="#f2f2f2"/>
      <path id="Path_83" data-name="Path 83" d="M3306.449,919.851l3.918-115.177-43.1-43.1,43.1,38.632,2.664-60.734-37.093-37.092,37.093,30.138,5.1-101.069-1.854,70.931,25.731-25.731-25.731,30.37V754.31l28.514-28.514-28.514,32.223v42.189l51.736-51.736-51.736,56.2v46.069l38.829-38.829-38.829,41.148v66.79Z" transform="translate(-1872 -26)" fill="#3f3d56"/>
    </g>
    <ellipse id="Ellipse_23" data-name="Ellipse 23" cx="257.92" cy="22.487" rx="257.92" ry="22.487" transform="translate(223.548 -201)" fill="#3f3d56"/>
    <ellipse id="Ellipse_24" data-name="Ellipse 24" cx="219.691" cy="14.87" rx="219.691" ry="14.87" transform="translate(261.777 -193.746)" opacity="0.1"/>
    <g id="Group_5" data-name="Group 5" transform="translate(-257 -2021)">
      <path id="Path_88" data-name="Path 88" d="M256.379,427.177c-2.24,6-6.04,11.631-11.57,14.858L296.9,452.662a55.186,55.186,0,0,1-.73-23.229,13.39,13.39,0,0,0,.312-5.732c-.98-3.78-5.234-5.6-9.041-6.466-9.508-2.167-17.916-3.33-26.751-7.529C257.992,414.33,258.37,421.846,256.379,427.177Z" transform="translate(517.097 881.5)" fill="#e8b1b1"/>
      <path id="Path_72" data-name="Path 72" d="M252.73,424.185a40.346,40.346,0,0,1,33.525.831c6.306,3.152,11.528,7.91,16.658,12.6,4.729,4.327,9.773,9.282,10.109,15.506.163,3.015-.83,5.964-1.331,8.946-1.846,12.639,4.94,25,16.914,30.818,3.908,6.175,4.714,13.655,4.774,20.857.227,27.286-8.849,54.908-2.369,81.493,1.521,6.242,3.881,12.288,5.195,18.572,1.7,8.139,1.618,16.509,2.509,24.764a106.109,106.109,0,0,0,6.276,26.191c-2.141,3.229-6.6,4.468-10.608,4.206s-7.764-1.913-11.344-3.651c-17.335-8.414-33.214-19.51-51.168-26.661-11.879-4.731-24.533-7.678-36.057-13.143s-22.241-14.136-25.765-25.891c-1.524-5.083-1.617-10.438-1.7-15.721-.35-22.254-.676-44.75,4.431-66.472,4.5-19.156,13.185-37.482,15.078-57.027.616-6.362.63-13.172,4.377-18.481C237.531,434.422,248.968,432.479,252.73,424.185Z" transform="translate(507.097 891.5)" fill="#2f2e41"/>
      <circle id="Ellipse_22" data-name="Ellipse 22" cx="40.975" cy="40.975" r="40.975" transform="translate(761.996 1230.745)" fill="#fbbebe"/>
      <path id="Path_89" data-name="Path 89" d="M272.195,411.993c2.185-2.85,6.4-3.238,9.89-2.4s6.709,2.642,10.235,3.326a5.984,5.984,0,0,0,4.79-.673,6.967,6.967,0,0,0,2.067-4.569,87.233,87.233,0,0,0,.859-22.243,6.586,6.586,0,0,1,.2-3.119c.873-2.1,3.536-2.6,5.71-3.278,7.381-2.495,13.968-.3,13.372-8.064-.054-1.811-8.2-5.7-9.507-6.954-1.5-1.225-15.555-2.766-17.495-2.782-9.968-.08-56.005,42.081-55.412,49.551.741,9.327,14.544,24.458,23.9,26.665C275.923,441.021,267.192,418.117,272.195,411.993Z" transform="translate(510.097 865.5)" fill="#2f2e41"/>
      <path id="Path_91" data-name="Path 91" d="M296.244,378.683c6.449-5.953,13.394-11.658,13.394-16.514s-12.3-9.223-13.394-10.275c-1.258-1.025-11.772-4.948-13.394-4.961-8.334-.067-9.9-.071-18.234,0-3.085.026-10.842-1.538-13.516,0-1.977,1.137-11.619,1.048-13.394,2.48-4.629,3.736-13.219,13.96-18.851,15.875-2.749.783-6.438,14.324-8.433,16.371-1.873,2.14-.5,4.837,3.473,7.937s8.061,3.349,12.4,4.465,4.961,0,4.961,0A32.995,32.995,0,0,1,233.241,402c.619,7.8,6.064,13.533,13.89,15.379C259.766,420.357,289.3,385.628,296.244,378.683Z" transform="translate(506.097 869.834)" fill="#f8f8f8"/>
      <path id="Path_104" data-name="Path 104" d="M167.815,775.266a55.428,55.428,0,0,1-10.511,4.5c-6.527,1.783-13.5,1.129-20.1,2.651-2.7.623-7.332,1.62-8.19,4.254-.63,1.932,1.75,4.325,2.406,6.248,7.285,21.36,14.263,42.567,25.882,61.915,4.883,8.126,8.356,16.957,15.4,23.306,2.641,2.381,5.634,4.71,9.171,5.083a9.315,9.315,0,0,0,8.524-3.8c1.956-2.7,2.318-3.07.949-6.111-1.042-2.315-2.978-7.281-4.227-9.491a24.108,24.108,0,0,1-2.338-8.985c-1.148-9.136-6.073-18.745-2.907-27.392,2.123-5.8,6.228-16.951,9.473-22.206s9.548-5,8.826-11.138c-.493-4.185-2.534-8.016-4.691-11.636s-6.432-13.377-10.774-14.588C180.2,766.62,171.745,773.252,167.815,775.266Z" transform="translate(477.097 962.5)" fill="#2f2e41"/>
      <path id="Path_105" data-name="Path 105" d="M254.331,837.894c.071,2.169.663,11.5,0,13.564-1.426,3.766-2.694,5.434-4.522,9.022-2.542,4.991-4.555,4.773-2.871,10.115,1.056,3.349,2.441,6.834,5.277,8.9a17.388,17.388,0,0,0,8.03,2.572c24.325,3.367,49.035,1.435,73.582,2.141,4.474.128,9.211.285,13.116-1.9s6.32-7.683,3.664-11.286c-2.385-3.235-7.1-3.2-11.116-3.4a45.736,45.736,0,0,1-28.205-11.619,20.378,20.378,0,0,1-3.956-4.554c-.835-1.514-4.923-3.169-5.464-4.811-7.645-9.829-7.661-19.285-12.377-28.03-1.32-2.448,2.453-8.519,0-9.829-1.8-.816-5.491,3.244-7.464,3.238-6.118-.4-21.961-2.479-26.692,2.279C250.96,818.7,254.428,832.31,254.331,837.894Z" transform="translate(500.097 961.5)" fill="#2f2e41"/>
      <path id="Path_93" data-name="Path 93" d="M1.821,9.821A11.421,11.421,0,0,0,8.84,11.816c3.8-.363,5-2.771,7.389-3.842C22.024,5.38,21.846,3,26.83,3s10.2,5.74,10.2,5.74l6.954,8.345" transform="translate(714.5 1243.5)" fill="none" stroke="#707070" stroke-linecap="round" stroke-width="1"/>
      <path id="Path_94" data-name="Path 94" d="M-8.156,16.766S5.471,6.88,13.585,3,25.66,1.153,27.36,1.749s3.359,2.629,6.206,4.064,6.871,5.615,6.871,5.615l5.246,5.394" transform="translate(724.5 1236.5)" fill="none" stroke="#707070" stroke-linecap="round" stroke-width="1"/>
      <path id="Path_95" data-name="Path 95" d="M-20.109,23.688S-13.071,16.172-6.3,8.74C-1.656,3.648,4.643.273,8.075-1.368,16.189-5.249,27.084.95,27.084.95A39.212,39.212,0,0,0,33.52,5.541c2.848,1.435,3.509,3.2,3.509,3.2l5.817,8.9" transform="translate(736.5 1229.5)" fill="none" stroke="#707070" stroke-linecap="round" stroke-width="1"/>
      <path id="Path_103" data-name="Path 103" d="M250.077,746.744c1.149,8.208,2.623,16.445,2.229,24.724-.55,11.559,1.935,22.225,1.164,33.771-.576,8.624,1.2,12.19,0,20.75-.767,5.481-4.078,16.056-5.184,21.478-3.541,17.854-5.229,36.71,5.184,51.639a8.4,8.4,0,0,0,3.121,3.025,8.814,8.814,0,0,0,3.868.512c13.008-.265,21.651-2.544,34.494-4.628.94-.038,3.668-1.827,4.33-2.495.29-.443-.067-12.216,0-12.741,2.381-12.241-.015-10.75-1.4-23.144-1.474-13.234,1.7-26.5,4.853-39.432a175.14,175.14,0,0,1,5.348-18.861c1.523-4.16,3.363-8.207,4.684-12.436a94.805,94.805,0,0,0,3.4-20.364q1.375-16.312,1.457-32.7a137.212,137.212,0,0,0-2.568-30.864c-2.9-12.861-8.829-24.8-14.709-36.6a23.183,23.183,0,0,0-8.665,4.118,193.394,193.394,0,0,1-23.677,13.081c-5.5,2.555-16.23,4.37-19.721,9.7-3.443,5.251-1.222,15.966-.959,21.757Q248,731.938,250.077,746.744Z" transform="translate(496.097 879.5)" fill="#232231"/>
      <path id="Path_102" data-name="Path 102" d="M217.437,605.518c-4.816,12.966,5.616,26.071,11.767,38.46C244.356,674.5,244.584,684,255.05,716.427c.784,2.429,8.508,29.058,7.634,31.456a9.794,9.794,0,0,1-3.532,4.189c-7.216,5.481-16.4,7.433-25,10.3a112.874,112.874,0,0,0-23.709,11.114c-6.229,3.86-12.064,8.316-17.888,12.764L174.015,800.41a12.394,12.394,0,0,0-3.1,3c-1.788,2.805-1.056,6.468-.165,9.673a164.5,164.5,0,0,0,9.077,24.772,8.65,8.65,0,0,0,3.292,4.314c2.894,1.555,6.433-.507,8.643-2.938s4.121-5.456,7.236-6.5,10.211-4.825,13.46-5.281c5.255-.738,17.9-6.112,21.693-9.829,15.477-15.184,28.48-8.5,45.505-21.928a74.129,74.129,0,0,1,7.8-6.093c2.878-1.7,6.142-2.635,9.128-4.139,9.083-4.574,14.793-14.029,17.851-23.727s3.931-19.936,6.129-29.865c1.136-5.133,2.632-10.21,3.138-15.443a82.728,82.728,0,0,0-.317-14.6l-6.143-75.993c-.5-6.187-1-12.382-1.972-18.513-18.245.652-36.476,1.386-54.731,1.6C246.013,609.093,231.22,610.109,217.437,605.518Z" transform="translate(490.123 922.815)" fill="#2f2e41"/>
      <path id="Path_96" data-name="Path 96" d="M-33.187,32.813A81.789,81.789,0,0,1-25.126,19.67C-19.935,12.739-14.591,9.2-11.678,6-7.038.909,7.593.95,7.593.95A65.959,65.959,0,0,1,17.95.385a34.228,34.228,0,0,1,9.457,1.921C31.223,3.454,31.5,4.566,34.352,6a14.192,14.192,0,0,1,4.507,3.62l3.988,8.019" transform="translate(749.5 1220.5)" fill="none" stroke="#707070" stroke-linecap="round" stroke-width="1"/>
      <path id="Path_87" data-name="Path 87" d="M218.194,467.96c-2.568,3.2,1.131,7.845.565,11.911-.376,2.7-2.6,4.764-3.525,7.33-.959,2.658-.45,5.6-.814,8.4a36.047,36.047,0,0,1-1.613,5.985,107.523,107.523,0,0,0-3.4,17.747l-3.385,25.276a95.758,95.758,0,0,0-1.07,11.487,34.3,34.3,0,0,1-.572,8.587c-.749,2.762-2.409,5.179-3.525,7.814a61.851,61.851,0,0,0-2.275,8.775s.856,16.16,0,24.586-5.729,20.117-6.76,22.836a8.688,8.688,0,0,0,1.231,8.232,10.49,10.49,0,0,1,2.144,2.6,6.925,6.925,0,0,1-.248,4.1,15.065,15.065,0,0,0,1.864,11.81,10.593,10.593,0,0,0,10.652,4.566c6.846-1.544,13-3.982,19.9-2.715,14.863,2.727,29.773,5.466,44.168,10.062,16.429,5.245,32.337,12.937,49.507,14.552a4.806,4.806,0,0,0,3.311-.515,4.973,4.973,0,0,0,1.531-3.148l5.307-24.883a256.083,256.083,0,0,0,4.878-27.872c.6-6.05.776-12.134.948-18.211L335.6,556.1c.641-7.129-4.41-24.267-4.41-24.267l-10.149-21.938c-4.49-14.332-8.1-24.173-11.764-38.738-2.321-9.218-4.035-19.11-10.259-26.295-8.873-10.243-26.8-6.519-40.233-4.758-6.07.8-11.987,4.745-17.237,7.893-6.071,3.64-8.178,1.482-12.5,7.084C225.473,459.7,221.843,463.408,218.194,467.96Z" transform="translate(498.097 878.5)" fill="#fff"/>
      <path id="Path_90" data-name="Path 90" d="M299.213,380.432l17.475-18.263S305.91,349.1,299.213,349.1s-16.364,13.071-16.364,13.071l-39.621,31.893s-11.451,5.085-11.161,8.739c.619,7.8,15.4,20.68,15.4,20.68s10.32-4.277,22.791-15.194S299.213,380.432,299.213,380.432Z" transform="translate(506.097 868.834)" fill="#fff"/>
      <path id="Path_97" data-name="Path 97" d="M0,0A96.563,96.563,0,0,0,6.888,12.292,106.36,106.36,0,0,0,15.1,22.737" transform="translate(751.5 1261.5)" fill="none" stroke="#707070" stroke-linecap="round" stroke-width="1"/>
      <path id="Path_98" data-name="Path 98" d="M0,0A94.865,94.865,0,0,0,6.919,12.137a83.573,83.573,0,0,0,8.517,10.227" transform="translate(763.675 1251.885)" fill="none" stroke="#707070" stroke-linecap="round" stroke-width="1"/>
      <path id="Path_100" data-name="Path 100" d="M.245.653A89.5,89.5,0,0,0,6.416,11.6a79.965,79.965,0,0,0,7.651,9.587" transform="translate(786.5 1232.5)" fill="none" stroke="#707070" stroke-linecap="round" stroke-width="1"/>
      <path id="Path_99" data-name="Path 99" d="M.129.28a88.319,88.319,0,0,0,6.293,11.3,89.959,89.959,0,0,0,8.5,10.43" transform="translate(773.5 1243.5)" fill="none" stroke="#707070" stroke-linecap="round" stroke-width="1"/>
      <path id="Path_101" data-name="Path 101" d="M.384,1.544A101.377,101.377,0,0,1,8.1,11.255c3.639,5.272,6.458,9.864,6.458,9.864" transform="translate(797.5 1220.5)" fill="none" stroke="#707070" stroke-linecap="round" stroke-width="1"/>
      <path id="Path_106" data-name="Path 106" d="M237.632,580.444c1.126,4.856,3.491,9.333,4.939,14.1,2.425,7.992,2.22,16.6,4.64,24.591,1.016,3.355,2.488,6.576,3.217,10,1.7,7.994-.782,16.264-3.866,23.832s-2.991,14.668-3.992,22.779c-.705,5.713-4.4,8.6,0,12.3,4.572,3.849,12.078,7.519,18.032,7.006a18.041,18.041,0,0,0,6.231-1.3c4.553-2.154,6.471-7.542,7.536-12.466,3.567-16.5,2.548-33.6,1.511-50.451l-2.711-44.064c-.522-8.483-1.081-17.142-3.7-25.288-.951-2.963-2.608-8.95-5.315-10.842-2.681-1.874-10.336-1.957-13.655-2.113C234.934,547.811,235.109,569.545,237.632,580.444Z" transform="translate(515.097 903.5)" fill="#fbbebe"/>
      <path id="Path_86" data-name="Path 86" d="M256.324,446.885c-5.295-.616-9.15.05-11.8,1.646-2.555,1.749-4.787,3.173-6.611,5.675-5.915,7.221-12.177,15.506-11.3,24.8.329,3.484,1.747,20.463,2.651,23.844,3.966,14.824-.5,24.441,0,39.778.291,8.862,2.219,9.961,4.14,18.617.392,1.767,1.02,3.812,2.729,4.407,1.284.447,2.671-.128,3.941-.611a31.434,31.434,0,0,1,28.767,3.626c3.174-1.694,1.985-7.05,1.273-10.576-2.114-10.479.756-21.289,4.242-31.395s7.657-20.2,8.234-30.873c.654-12.095-3.356-23.9-7.312-35.348-.864-2.5-1.807-5.119-3.81-6.845-1.714-1.275-2.088-3.264-4.174-3.726C263.095,448.66,261.619,447.5,256.324,446.885Z" transform="translate(515.097 893.5)" fill="#2f2e41"/>
    </g>
  </g>
</svg>
