<?xml version="1.0" encoding="iso-8859-1"?>
<!-- Generator: Adobe Illustrator 19.0.0, SVG Export Plug-In . SVG Version: 6.00 Build 0)  -->
<svg version="1.1" id="Capa_1" xmlns="http://www.w3.org/2000/svg" xmlns:xlink="http://www.w3.org/1999/xlink" x="0px" y="0px"
	 viewBox="0 0 464 464" style="enable-background:new 0 0 464 464;" xml:space="preserve">
<path style="fill:#29ABE2;" d="M168,12h128v48H168V12z"/>
<g>
	<path style="fill:#FBB03B;" d="M168,84h16v16h-16V84z"/>
	<path style="fill:#FBB03B;" d="M200,84h96v16h-96V84z"/>
	<path style="fill:#FBB03B;" d="M0,260h16v16H0V260z"/>
	<path style="fill:#FBB03B;" d="M32,260h96v16H32V260z"/>
	<path style="fill:#FBB03B;" d="M168,260h16v16h-16V260z"/>
	<path style="fill:#FBB03B;" d="M200,260h96v16h-96V260z"/>
	<path style="fill:#FBB03B;" d="M336,260h16v16h-16V260z"/>
	<path style="fill:#FBB03B;" d="M368,260h96v16h-96V260z"/>
	<path style="fill:#FBB03B;" d="M0,436h16v16H0V436z"/>
	<path style="fill:#FBB03B;" d="M32,436h96v16H32V436z"/>
	<path style="fill:#FBB03B;" d="M168,436h16v16h-16V436z"/>
	<path style="fill:#FBB03B;" d="M200,436h96v16h-96V436z"/>
	<path style="fill:#FBB03B;" d="M336,436h16v16h-16V436z"/>
	<path style="fill:#FBB03B;" d="M368,436h96v16h-96V436z"/>
</g>
<g>
	<path style="fill:#999999;" d="M400,140H240v-24h-16v24H64c-4.418,0-8,3.582-8,8v48h16v-40h152v40h16v-40h152v40h16v-48
		C408,143.582,404.418,140,400,140z"/>
	<path style="fill:#999999;" d="M400,316H240v-24h-16v24H64c-4.418,0-8,3.582-8,8v48h16v-40h152v40h16v-40h152v40h16v-48
		C408,319.582,404.418,316,400,316z"/>
</g>
<g>
	<path style="fill:#29ABE2;" d="M0,188h128v48H0V188z"/>
	<path style="fill:#29ABE2;" d="M168,188h128v48H168V188z"/>
	<path style="fill:#29ABE2;" d="M336,188h128v48H336V188z"/>
	<path style="fill:#29ABE2;" d="M0,364h128v48H0V364z"/>
	<path style="fill:#29ABE2;" d="M168,364h128v48H168V364z"/>
	<path style="fill:#29ABE2;" d="M336,364h128v48H336V364z"/>
</g>
<g>
</g>
<g>
</g>
<g>
</g>
<g>
</g>
<g>
</g>
<g>
</g>
<g>
</g>
<g>
</g>
<g>
</g>
<g>
</g>
<g>
</g>
<g>
</g>
<g>
</g>
<g>
</g>
<g>
</g>
</svg>
