<svg id="Capa_1" enable-background="new 0 0 512 512" height="512" viewBox="0 0 512 512" width="512" xmlns="http://www.w3.org/2000/svg"><g><g><path d="m226.6 446.219h-214.736c-6.552 0-11.864-5.312-11.864-11.865v-379.747h238.464v379.747c0 6.553-5.311 11.865-11.864 11.865z" fill="#d8ecfe"/><path d="m238.468 59.453v374.904c0 6.551-5.311 11.862-11.872 11.862h-19.671c6.56 0 11.872-5.311 11.872-11.862v-374.904z" fill="#c4e2ff"/><path d="m238.464 59.462h-238.464v-33.206c0-4.703 3.812-8.515 8.515-8.515h221.435c4.703 0 8.515 3.812 8.515 8.515v33.206z" fill="#60b7ff"/><path d="m238.462 26.252v33.207h-19.732v-33.207c0-4.698-3.815-8.513-8.522-8.513h19.742c4.697 0 8.512 3.815 8.512 8.513z" fill="#26a6fe"/><path d="m47.224 59.462h-47.224v-33.206c0-4.703 3.812-8.515 8.515-8.515h38.709z" fill="#e94444"/><path d="m26.419 17.741h20.805v41.723h-20.805z" fill="#d83131"/></g><g><path d="m500.132 446.219h-214.736c-6.552 0-11.864-5.312-11.864-11.864v-379.748h238.464v379.747c.001 6.553-5.311 11.865-11.864 11.865z" fill="#d8ecfe"/><path d="m512 59.453v374.904c0 6.551-5.311 11.862-11.872 11.862h-19.671c6.56 0 11.872-5.311 11.872-11.862v-374.904z" fill="#c4e2ff"/><path d="m511.997 59.462h-238.465v-33.206c0-4.703 3.812-8.515 8.515-8.515h221.435c4.703 0 8.515 3.812 8.515 8.515z" fill="#60b7ff"/><path d="m511.995 26.252v33.207h-19.732v-33.207c0-4.698-3.815-8.513-8.522-8.513h19.742c4.696 0 8.512 3.815 8.512 8.513z" fill="#26a6fe"/><path d="m320.756 59.462h-47.224v-33.206c0-4.703 3.812-8.515 8.515-8.515h38.709z" fill="#e94444"/><path d="m299.951 17.741h20.805v41.723h-20.805z" fill="#d83131"/></g><g><path d="m196.12 228.973h-152.635c-2.737 0-4.955-2.218-4.955-4.955v-114.105c0-2.737 2.218-4.955 4.955-4.955h152.635c2.737 0 4.955 2.218 4.955 4.955v114.104c0 2.737-2.218 4.956-4.955 4.956z" fill="#f4d902"/></g><g><path d="m201.078 109.91v114.106c0 2.736-2.216 4.953-4.953 4.953h-19.614c2.736 0 4.953-2.216 4.953-4.953v-114.106c0-2.736-2.216-4.953-4.953-4.953h19.614c2.736 0 4.953 2.217 4.953 4.953z" fill="#e3ca00"/></g><path d="m201.08 113.914-68.348 53.054 68.348 53.044v4.009c0 2.731-2.226 4.947-4.957 4.947h-8.708l-67.297-52.22-67.287 52.22h-9.347c-2.731 0-4.957-2.216-4.957-4.947v-3.514l68.987-53.539-68.987-53.549v-3.504c0-2.741 2.226-4.957 4.957-4.957h9.347l67.287 52.22 67.297-52.22h8.708c2.731 0 4.957 2.216 4.957 4.957z" fill="#ba9b06"/><g><path d="m199.043 272.004h-160.513c-4.269 0-7.729-3.46-7.729-7.729s3.46-7.729 7.729-7.729h160.513c4.269 0 7.729 3.46 7.729 7.729.001 4.269-3.46 7.729-7.729 7.729z" fill="#96cced"/></g><g><path d="m199.043 306.329h-160.513c-4.269 0-7.729-3.46-7.729-7.729s3.46-7.729 7.729-7.729h160.513c4.269 0 7.729 3.46 7.729 7.729.001 4.269-3.46 7.729-7.729 7.729z" fill="#96cced"/></g><g><path d="m199.043 340.654h-160.513c-4.269 0-7.729-3.46-7.729-7.729s3.46-7.729 7.729-7.729h160.513c4.269 0 7.729 3.46 7.729 7.729.001 4.269-3.46 7.729-7.729 7.729z" fill="#96cced"/></g><g><path d="m469.082 228.973h-152.634c-2.737 0-4.955-2.218-4.955-4.955v-114.105c0-2.737 2.219-4.955 4.955-4.955h152.635c2.737 0 4.955 2.218 4.955 4.955v114.104c-.001 2.737-2.219 4.956-4.956 4.956z" fill="#f4d902"/></g><g><path d="m474.04 109.91v114.106c0 2.736-2.216 4.953-4.953 4.953h-19.614c2.736 0 4.953-2.216 4.953-4.953v-114.106c0-2.736-2.216-4.953-4.953-4.953h19.614c2.736 0 4.953 2.217 4.953 4.953z" fill="#e3ca00"/></g><path d="m474.041 109.915c0-2.741-2.226-4.957-4.957-4.957h-8.708l-67.297 52.22-67.287-52.22h-9.347c-2.731 0-4.947 2.216-4.947 4.957v3.514l68.977 53.539-68.977 53.529v3.525c0 2.731 2.216 4.947 4.947 4.947h9.347l67.287-52.22 67.297 52.22h8.708c2.731 0 4.957-2.216 4.957-4.947v-4.009l-68.348-53.044 68.348-53.054z" fill="#ba9b06"/><g><path d="m472.006 272.004h-160.514c-4.269 0-7.729-3.46-7.729-7.729s3.46-7.729 7.729-7.729h160.513c4.269 0 7.729 3.46 7.729 7.729.001 4.269-3.459 7.729-7.728 7.729z" fill="#96cced"/></g><g><path d="m472.006 306.329h-160.514c-4.269 0-7.729-3.46-7.729-7.729s3.46-7.729 7.729-7.729h160.513c4.269 0 7.729 3.46 7.729 7.729.001 4.269-3.459 7.729-7.728 7.729z" fill="#96cced"/></g><g><path d="m472.006 340.654h-160.514c-4.269 0-7.729-3.46-7.729-7.729s3.46-7.729 7.729-7.729h160.513c4.269 0 7.729 3.46 7.729 7.729.001 4.269-3.459 7.729-7.728 7.729z" fill="#96cced"/></g><g><path d="m472.006 374.432h-160.514c-4.269 0-7.729-3.46-7.729-7.729s3.46-7.729 7.729-7.729h160.513c4.269 0 7.729 3.46 7.729 7.729.001 4.269-3.459 7.729-7.728 7.729z" fill="#96cced"/></g><g><path d="m472.006 408.441h-160.514c-4.269 0-7.729-3.46-7.729-7.729s3.46-7.729 7.729-7.729h160.513c4.269 0 7.729 3.46 7.729 7.729.001 4.269-3.459 7.729-7.728 7.729z" fill="#96cced"/></g><g><path d="m192.764 390.028h.01zm126.462 56.187v33.391c0 8.08-6.585 14.655-14.665 14.655h-97.936c-8.08 0-14.665-6.575-14.665-14.655v-89.578h-32.494c-4.267 0-7.729-3.463-7.729-7.729 0-4.267 3.463-7.729 7.729-7.729h33.298c8.08 0 14.655 6.575 14.655 14.655v89.578h96.349v-32.587h15.458z" fill="#acacac"/></g><g><g><path d="m161.732 401.496h-119.389c-2.735 0-4.953-2.217-4.953-4.953v-28.491c0-2.735 2.217-4.953 4.953-4.953h119.389c2.735 0 4.953 2.217 4.953 4.953v28.491c0 2.736-2.218 4.953-4.953 4.953z" fill="#97d729"/></g><g><path d="m166.684 368.052v28.492c0 2.736-2.216 4.953-4.953 4.953h-19.614c2.736 0 4.953-2.216 4.953-4.953v-28.492c0-2.736-2.216-4.953-4.953-4.953h19.614c2.737.001 4.953 2.217 4.953 4.953z" fill="#8bc727"/></g></g></g></svg>