<svg id="Flat" height="512" viewBox="0 0 512 512" width="512" xmlns="http://www.w3.org/2000/svg"><rect fill="#e9eef2" height="448" rx="16" transform="matrix(-1 0 0 -1 512 509.927)" width="464" x="24" y="30.964"/><path d="m488 46.964v48h-464v-48a16 16 0 0 1 16-16h432a16 16 0 0 1 16 16z" fill="#c3c6c7"/><circle cx="120" cy="62.964" fill="#e9eef2" r="8"/><circle cx="88" cy="62.964" fill="#e9eef2" r="8"/><circle cx="56" cy="62.964" fill="#e9eef2" r="8"/><path d="m128 280h-56a8 8 0 0 1 0-16h56a8 8 0 0 1 0 16z" fill="#c3c6c7"/><path d="m72 144h96v96h-96z" fill="#2d85cc"/><path d="m136 240h-64l32-48z" fill="#88c791"/><circle cx="136" cy="176" fill="#f7cc38" r="8"/><path d="m208 144h96v96h-96z" fill="#2d85cc"/><path d="m272 240h-64l32-48z" fill="#88c791"/><circle cx="272" cy="176" fill="#f7cc38" r="8"/><path d="m344 144h96v96h-96z" fill="#2d85cc"/><path d="m408 240h-64l32-48z" fill="#88c791"/><circle cx="408" cy="176" fill="#f7cc38" r="8"/><path d="m72 304h96v96h-96z" fill="#2d85cc"/><path d="m136 400h-64l32-48z" fill="#88c791"/><circle cx="136" cy="336" fill="#f7cc38" r="8"/><path d="m208 304h96v96h-96z" fill="#2d85cc"/><path d="m272 400h-64l32-48z" fill="#88c791"/><circle cx="272" cy="336" fill="#f7cc38" r="8"/><path d="m344 304h96v96h-96z" fill="#2d85cc"/><path d="m408 400h-64l32-48z" fill="#88c791"/><circle cx="408" cy="336" fill="#f7cc38" r="8"/><g fill="#c3c6c7"><circle cx="168" cy="272" r="8"/><path d="m264 280h-56a8 8 0 0 1 0-16h56a8 8 0 0 1 0 16z"/><circle cx="304" cy="272" r="8"/><path d="m400 280h-56a8 8 0 0 1 0-16h56a8 8 0 0 1 0 16z"/><circle cx="440" cy="272" r="8"/><path d="m128 440h-56a8 8 0 0 1 0-16h56a8 8 0 0 1 0 16z"/><circle cx="168" cy="432" r="8"/><path d="m264 440h-56a8 8 0 0 1 0-16h56a8 8 0 0 1 0 16z"/><circle cx="304" cy="432" r="8"/><path d="m400 440h-56a8 8 0 0 1 0-16h56a8 8 0 0 1 0 16z"/><circle cx="440" cy="432" r="8"/></g></svg>