<?xml version="1.0" encoding="UTF-8"?>
<svg id="Capa_1" data-name="Capa 1" xmlns="http://www.w3.org/2000/svg" version="1.1" viewBox="0 0 57 41.8">
  <defs>
    <style>
      .cls-1 {
        fill: #5354a4;
      }

      .cls-1, .cls-2 {
        stroke-width: 0px;
      }

      .cls-2 {
        fill: #ecf0f1;
      }
    </style>
  </defs>
  <rect class="cls-2" width="57" height="41.8"/>
  <g>
    <path class="cls-1" d="M22.4,31.3c-.2,0-.4,0-.5-.2l-9.7-9.7c-.4-.4-.4-1.2,0-1.6l9.7-9.7c.3-.3.7-.3,1,0s.3.7,0,1l-8.7,8.7c-.4.4-.4,1.2,0,1.6l8.7,8.7c.3.3.3.7,0,1-.1,0-.3.2-.5.2Z"/>
    <path class="cls-1" d="M34.6,31.3c-.2,0-.4,0-.5-.2-.3-.3-.3-.7,0-1l8.7-8.7c.4-.4.4-1.2,0-1.6l-8.7-8.7c-.3-.3-.3-.7,0-1s.7-.3,1,0l9.7,9.7c.4.4.4,1.2,0,1.6l-9.7,9.7c0,0-.3.2-.5.2Z"/>
    <path class="cls-1" d="M25.3,35.6h-.2c-.4,0-.6-.5-.5-.9l6.5-29.4c0-.4.5-.6.9-.5.4,0,.6.5.5.9l-6.5,29.4c0,.3-.4.6-.7.6h0Z"/>
  </g>
</svg>